<?xml version="1.0" encoding="iso-8859-1"?>
<!-- Generator: Adobe Illustrator 16.0.3, SVG Export Plug-In . SVG Version: 6.00 Build 0)  -->
<!DOCTYPE svg PUBLIC "-//W3C//DTD SVG 1.1//EN" "http://www.w3.org/Graphics/SVG/1.1/DTD/svg11.dtd">
<svg version="1.1" id="bahrain_x5F_1-layer" xmlns="http://www.w3.org/2000/svg" xmlns:xlink="http://www.w3.org/1999/xlink"
	 x="0px" y="0px" width="53.222px" height="41.61px" viewBox="0 0 53.222 41.61" style="enable-background:new 0 0 53.222 41.61;"
	 xml:space="preserve">
<g id="bahrain_x5F_1">
	<path style="fill:#F3F1E7;" d="M26.608,41.61c-11.124,0-22.435-6.88-22.519-20.017c-0.033-5.41-2.366-7.148-2.465-7.219
		c-1.615-1.113-2.104-3.286-1.111-4.943l4.59-7.649C5.761,0.683,6.968,0,8.25,0h36.714c1.281,0,2.49,0.683,3.148,1.782l4.59,7.649
		c1.025,1.705,0.484,3.951-1.205,5.005c-0.035,0.03-2.336,1.782-2.371,7.16C49.043,34.736,37.734,41.61,26.608,41.61z"/>
	<path style="fill:none;stroke:#333333;stroke-linecap:round;stroke-linejoin:round;" d="M44.967,3.672l4.59,7.648
		c0,0-4.049,2.524-4.1,10.251C45.381,33.426,34.719,37.939,26.61,37.939c-8.109,0-18.77-4.514-18.848-16.371
		C7.713,13.845,3.665,11.32,3.665,11.32l4.588-7.648H44.967z"/>
	<path style="fill:#578AC5;" d="M31.111,24.392v9.458h-1.789v-6.391l-2.066,4.144h-1.398l-1.957-3.982v6.229H22.11v-9.458h2.02
		l2.482,5.206l2.468-5.206H31.111z"/>
</g>
</svg>
